<svg xmlns:xlink="http://www.w3.org/1999/xlink" xmlns="http://www.w3.org/2000/svg" xmlns:ev="http://www.w3.org/2001/xml-events" width="1132" height="804" viewBox="0 0 1132 804"><style type="text/css"><![CDATA[
.st1 {fill:#000000;font-family:Arial;font-size:14pt}
.st6 {fill:#000000;font-family:宋体;font-size:10pt}
.st4 {fill:#13222f;font-family:宋体;font-size:10pt}
.st3 {fill:#13222f;font-family:宋体;font-size:11pt;font-weight:bold}
.st7 {fill:#13222f;font-family:宋体;font-size:13pt;font-weight:bold}
.st2 {fill:#ffffff;font-family:Arial;font-size:10pt}
.st5 {fill:#ffffff;font-family:宋体;font-size:10pt}
]]></style><defs/><g id="page1" transform="translate(5,5)"><rect y="0" fill="#ffffff" stroke="#808080" width="1123" height="794" x="0"/><g transform="translate(46.93,44.07)"><g><path id="shape1" d="M0,0L153.7,0L153.7,705.6L0,705.6L0,0z" fill="none" stroke="#23384b"/><path id="shape2" d="M0,0L153.7,0L153.7,705.6L0,705.6L0,0z" fill="none" stroke="#23384b"/><g id="shape3"><path fill="#cfebf6" d="M0,0L153.7,0L153.7,56.7L0,56.7L0,0z" stroke="#23384b"/><text class="st1"><tspan y="35.1" x="37.9">感应部件 </tspan></text></g></g><g transform="translate(153.66,0)"><path id="shape4" d="M0,0L284,0L284,705.6L0,705.6L0,0z" fill="none" stroke="#23384b"/><path id="shape5" d="M0,0L284,0L284,705.6L0,705.6L0,0z" fill="none" stroke="#23384b"/><g id="shape6"><path fill="#cfebf6" d="M0,0L284,0L284,56.7L0,56.7L0,0z" stroke="#23384b"/><text class="st1"><tspan y="35.1" x="105.6">传输组件</tspan></text></g></g><g transform="translate(437.66,0)"><path id="shape7" d="M0,0L132,0L132,705.6L0,705.6L0,0z" fill="none" stroke="#23384b"/><path id="shape8" d="M0,0L132,0L132,705.6L0,705.6L0,0z" fill="none" stroke="#23384b"/><g id="shape9"><path fill="#cfebf6" d="M0,0L132,0L132,56.7L0,56.7L0,0z" stroke="#23384b"/><text class="st1"><tspan y="35.1" x="29.6">数据组件</tspan></text></g></g><g transform="translate(569.66,0)"><path id="shape10" d="M0,0L153,0L153,705.6L0,705.6L0,0z" fill="none" stroke="#23384b"/><path id="shape11" d="M0,0L153,0L153,705.6L0,705.6L0,0z" fill="none" stroke="#23384b"/><g id="shape12"><path fill="#cfebf6" d="M0,0L153,0L153,56.7L0,56.7L0,0z" stroke="#23384b"/><text class="st1"><tspan y="35.1" x="40">计算组件</tspan></text></g></g><g transform="translate(722.66,0)"><path id="shape13" d="M0,0L153,0L153,705.6L0,705.6L0,0z" fill="none" stroke="#23384b"/><path id="shape14" d="M0,0L153,0L153,705.6L0,705.6L0,0z" fill="none" stroke="#23384b"/><g id="shape15"><path fill="#cfebf6" d="M0,0L153,0L153,56.7L0,56.7L0,0z" stroke="#23384b"/><text class="st1"><tspan y="35.1" x="40">服务组件</tspan></text></g></g><g transform="translate(875.66,0)"><path id="shape16" d="M0,0L153,0L153,705.6L0,705.6L0,0z" fill="none" stroke="#23384b"/><path id="shape17" d="M0,0L153,0L153,705.6L0,705.6L0,0z" fill="none" stroke="#23384b"/><g id="shape18"><path fill="#cfebf6" d="M0,0L153,0L153,56.7L0,56.7L0,0z" stroke="#23384b"/><text class="st1"><tspan y="35.1" x="58.4">用户</tspan></text></g></g></g><g id="shape19" transform="translate(641.92,364.91)"><path fill="#585392" d="M0,52.4L0,7.5C15.7,17.5,35.7,17.5,51.3,7.5C67,-2.5,87,-2.5,102.7,7.5L102.7,52.4C87,42.5,67,42.5,51.3,52.4C35.7,62.4,15.7,62.4,0,52.4z" stroke="#585392"/><text class="st2"><tspan y="34.4" x="10.7">Django服务器</tspan></text></g><g id="shape20" transform="translate(799.77,251.84)"><path fill="#50bec1" d="M20,62.3L77.6,62.3L97.6,31.2L77.6,0L20,0L0,31.2L20,62.3z" stroke="#585392"/><text class="st2"><tspan y="26.8" x="26.7">Echarts</tspan><tspan y="43.6" x="14.7">可视化界面</tspan></text></g><g transform="translate(799.77,475.74)"><path id="shape21" fill="#50bec1" d="M20.3,40.5L77.4,40.5C88.6,40.5,97.6,31.4,97.6,20.3C97.6,9.1,88.6,0,77.4,0L20.3,0C9.1,0,0,9.1,0,20.3C0,31.4,9.1,40.5,20.3,40.5z" stroke="#fad15a"/><text class="st2"><tspan y="15.9" x="25.9">Android</tspan><tspan y="32.7" x="23.5">移动App</tspan></text></g><g transform="translate(70.82,128)"><g><path id="shape22" fill="#30a68d" d="M97.6,58.2L97.6,0L0,0L0,58.2L97.6,58.2z" stroke="#30a68d"/><text class="st2"><tspan y="25.1" x="28.3">感知器</tspan><tspan y="41.9" x="14.7">（超声波）</tspan></text></g><g transform="translate(0,84.25)"><path id="shape23" fill="#30a68d" d="M97.6,58.2L97.6,0L0,0L0,58.2L97.6,58.2z" stroke="#30a68d"/><text class="st2"><tspan y="25.1" x="28.3">感知器</tspan><tspan y="41.9" x="14.7">（超声波）</tspan></text></g><g transform="translate(0,168.87)"><path id="shape24" fill="#30a68d" d="M97.6,58.2L97.6,0L0,0L0,58.2L97.6,58.2z" stroke="#30a68d"/><text class="st2"><tspan y="25.1" x="28.3">感知器</tspan><tspan y="41.9" x="14.7">（超声波）</tspan></text></g><g transform="translate(0,253.3)"><path id="shape25" fill="#30a68d" d="M97.6,58.2L97.6,0L0,0L0,58.2L97.6,58.2z" stroke="#30a68d"/><text class="st2"><tspan y="25.1" x="28.3">感知器</tspan><tspan y="41.9" x="14.7">（超声波）</tspan></text></g><g transform="translate(0,337.74)"><path id="shape26" fill="#30a68d" d="M97.6,58.2L97.6,0L0,0L0,58.2L97.6,58.2z" stroke="#30a68d"/><text class="st2"><tspan y="25.1" x="28.3">感知器</tspan><tspan y="41.9" x="14.7">（超声波）</tspan></text></g><g transform="translate(0,422.17)"><path id="shape27" fill="#30a68d" d="M97.6,58.2L97.6,0L0,0L0,58.2L97.6,58.2z" stroke="#30a68d"/><text class="st2"><tspan y="25.1" x="28.3">感知器</tspan><tspan y="41.9" x="14.7">（超声波）</tspan></text></g></g><g id="shape28" transform="translate(74.64,638)"><text class="st3"><tspan y="30.7" x="16.8">... ...</tspan></text></g><g id="shape29" transform="translate(168.46,157.08)"><path d="M0,0L25.5,0L25.5,85L53.1,85" fill="none" stroke="#172635"/><path stroke-width="1" fill="#172635" d="M57.5,85L52.3,82C52.8,82.9,53.1,83.9,53.1,85C53.1,86.1,52.8,87.1,52.3,88L57.5,85" stroke="#172635" stroke-linecap="round"/></g><g id="shape30" transform="translate(168.46,241.33)"><path d="M0,0L25.5,0L53.1,.6" fill="none" stroke="#172635"/><path stroke-width="1" fill="#172635" d="M57.5,.8L52.4,-2.4C52.9,-1.5,53.1,-0.4,53.1,.6C53.1,1.7,52.8,2.8,52.2,3.6L57.5,.8" stroke="#172635" stroke-linecap="round"/></g><g id="shape31" transform="translate(168.46,325.95)"><path d="M0,0L25.5,0L25.5,-83.9L53.1,-83.9" fill="none" stroke="#172635"/><path stroke-width="1" fill="#172635" d="M57.5,-83.9L52.3,-86.9C52.8,-86,53.1,-85,53.1,-83.9C53.1,-82.8,52.8,-81.7,52.3,-80.9L57.5,-83.9" stroke="#172635" stroke-linecap="round"/></g><g id="shape32" transform="translate(168.46,410.39)"><path d="M0,0L25.5,0L25.5,84.5L53.1,84.5" fill="none" stroke="#172635"/><path stroke-width="1" fill="#172635" d="M57.5,84.5L52.3,81.5C52.8,82.4,53.1,83.4,53.1,84.5C53.1,85.6,52.8,86.6,52.3,87.5L57.5,84.5" stroke="#172635" stroke-linecap="round"/></g><g id="shape33" transform="translate(168.46,494.82)"><path d="M0,0L25.5,0L53.1,.1" fill="none" stroke="#172635"/><path stroke-width="1" fill="#172635" d="M57.5,.1L52.3,-2.9C52.8,-2,53.1,-1,53.1,.1C53.1,1.2,52.8,2.2,52.3,3.1L57.5,.1" stroke="#172635" stroke-linecap="round"/></g><g id="shape34" transform="translate(168.46,579.25)"><path d="M0,0L25.5,0L25.5,-84.3L53.1,-84.3" fill="none" stroke="#172635"/><path stroke-width="1" fill="#172635" d="M57.5,-84.3L52.3,-87.3C52.8,-86.5,53.1,-85.4,53.1,-84.3C53.1,-83.2,52.8,-82.2,52.3,-81.3L57.5,-84.3" stroke="#172635" stroke-linecap="round"/></g><g id="shape35" transform="translate(372.09,362.98)"><path fill="#e8e8e9" d="M8,0L97,0C107.6,19.9,107.6,43.9,97,63.8L8,63.8C-2.7,43.9,-2.7,19.9,8,0z"/><path d="M8,0L97,0C107.6,19.9,107.6,43.9,97,63.8L8,63.8C-2.7,43.9,-2.7,19.9,8,0zM97,0C86.4,19.9,86.4,43.9,97,63.8" fill="none" stroke="#7f848b"/><text class="st4"><tspan y="21.9" x="14.4">路段服务器 </tspan><tspan y="37.1" x="10.4">（Kafka消息</tspan><tspan y="52.3" x="21.6">中间件）</tspan></text></g><g transform="translate(225.95,213)"><g id="shape36"><path fill="#0168a5" d="M0,58.2L73.2,58.2C87.3,55.7,97.6,43.4,97.6,29.1C97.6,14.8,87.3,2.5,73.2,0L0,0L0,58.2z" stroke="#23384b"/><text class="st5"><tspan y="26.7" x="8.3">无线传输模块</tspan><tspan y="41.9" x="9.9">（ESP8266）</tspan></text></g><g id="shape37" transform="translate(0,252.83)"><path fill="#0168a5" d="M0,58.2L73.2,58.2C87.3,55.7,97.6,43.4,97.6,29.1C97.6,14.8,87.3,2.5,73.2,0L0,0L0,58.2z" stroke="#23384b"/><text class="st5"><tspan y="26.7" x="8.3">无线传输模块</tspan><tspan y="41.9" x="9.9">（ESP8266）</tspan></text></g><g id="shape38" transform="translate(3.82,425)"><text class="st3"><tspan y="30.7" x="16.8">... ...</tspan></text></g></g><g id="shape39" transform="translate(323.59,242.08)"><path d="M0,0L45.8,0L45.8,152.8L45.8,152.8" fill="none" stroke="#172635"/><path stroke-width="1" fill="#172635" d="M48.5,152.8L43.3,149.8C43.8,150.7,44.1,151.7,44.1,152.8C44.1,153.9,43.8,154.9,43.3,155.8L48.5,152.8" stroke="#172635" stroke-linecap="round"/></g><g id="shape40" transform="translate(323.59,494.92)"><path d="M0,0L32.5,0L32.5,-100L44.1,-100" fill="none" stroke="#172635"/><path stroke-width="1" fill="#172635" d="M48.5,-100L43.3,-103C43.8,-102.2,44.1,-101.1,44.1,-100C44.1,-98.9,43.8,-97.9,43.3,-97L48.5,-100" stroke="#172635" stroke-linecap="round"/></g><g id="shape41" transform="translate(320.59,699)"><path d="M0,0L35.5,0L35.5,-304.1L47.1,-304.1" fill="none" stroke="#172635"/><path stroke-width="1" fill="#172635" d="M51.5,-304.1L46.3,-307.1C46.8,-306.2,47.1,-305.2,47.1,-304.1C47.1,-303,46.8,-302,46.3,-301.1L51.5,-304.1" stroke="#172635" stroke-linecap="round"/></g><g transform="translate(519.19,142.34)"><g id="shape42" transform="translate(0,108.27)"><path fill="#e8e8e9" d="M67.1,56.8L67.1,0L0,0L0,56.8L67.1,56.8z"/><path d="M67.1,56.8L67.1,0L0,0L0,56.8L67.1,56.8zM9.4,56.8L9.4,0L9.4,56.8zM0,9.4L67.1,9.4L0,9.4z" fill="none" stroke="#7f848b"/><text class="st4"><tspan y="35.4" x="25">车位</tspan><tspan y="50.6" x="25">信息</tspan></text></g><g id="shape43" transform="translate(0,224.14)"><path fill="#e8e8e9" d="M67.1,56.8L67.1,0L0,0L0,56.8L67.1,56.8z"/><path d="M67.1,56.8L67.1,0L0,0L0,56.8L67.1,56.8zM9.4,56.8L9.4,0L9.4,56.8zM0,9.4L67.1,9.4L0,9.4z" fill="none" stroke="#7f848b"/><text class="st4"><tspan y="35.4" x="25">用户</tspan><tspan y="50.6" x="25">信息</tspan></text></g><g id="shape44" transform="translate(0,328.54)"><path fill="#e8e8e9" d="M67.1,56.8L67.1,0L0,0L0,56.8L67.1,56.8z"/><path d="M67.1,56.8L67.1,0L0,0L0,56.8L67.1,56.8zM9.4,56.8L9.4,0L9.4,56.8zM0,9.4L67.1,9.4L0,9.4z" fill="none" stroke="#7f848b"/><text class="st4"><tspan y="35.4" x="25">历史</tspan><tspan y="50.6" x="25">订单</tspan></text></g><g id="shape45" transform="translate(0,436.81)"><path fill="#e8e8e9" d="M67.1,72L67.1,0L0,0L0,72L67.1,72z"/><path d="M67.1,72L67.1,0L0,0L0,72L67.1,72zM9.4,72L9.4,0L9.4,72zM0,9.4L67.1,9.4L0,9.4z" fill="none" stroke="#7f848b"/><text class="st4"><tspan y="35.4" x="17.8">管理员</tspan><tspan y="50.6" x="25">信息</tspan></text></g><g id="shape46"><path fill="#e8e8e9" d="M67.1,56.8L67.1,0L0,0L0,56.8L67.1,56.8z"/><path d="M67.1,56.8L67.1,0L0,0L0,56.8L67.1,56.8zM9.4,56.8L9.4,0L9.4,56.8zM0,9.4L67.1,9.4L0,9.4z" fill="none" stroke="#7f848b"/><text class="st4"><tspan y="35.4" x="25">路段</tspan><tspan y="50.6" x="25">信息</tspan></text></g></g><g id="shape47" transform="translate(469.09,394.88)"><path d="M0,0L45.7,-0" fill="none" stroke="#172635"/><path stroke-width="1" fill="#172635" d="M50.1,-0L44.9,-3C45.4,-2.1,45.7,-1.1,45.7,-0C45.7,1.1,45.4,2.1,44.9,3L50.1,-0" stroke="#172635" stroke-linecap="round"/></g><g id="shape48" transform="translate(477.07,394.88)"><path d="M0,0L26.1,0L26.1,-224.1L37.7,-224.1" fill="none" stroke="#172635"/><path stroke-width="1" fill="#172635" d="M42.1,-224.1L36.9,-227.1C37.4,-226.3,37.7,-225.2,37.7,-224.1C37.7,-223,37.4,-222,36.9,-221.1L42.1,-224.1" stroke="#172635" stroke-linecap="round"/></g><g id="shape49" transform="translate(469.09,394.88)"><path d="M0,0L34.1,0L34.1,-115.9L45.7,-115.9" fill="none" stroke="#172635"/><path stroke-width="1" fill="#172635" d="M50.1,-115.9L44.9,-118.9C45.4,-118,45.7,-117,45.7,-115.9C45.7,-114.8,45.4,-113.8,44.9,-112.9L50.1,-115.9" stroke="#172635" stroke-linecap="round"/></g><g id="shape50" transform="translate(469.09,394.88)"><path d="M0,0L34.1,0L34.1,104.4L45.7,104.4" fill="none" stroke="#172635"/><path stroke-width="1" fill="#172635" d="M50.1,104.4L44.9,101.4C45.4,102.3,45.7,103.3,45.7,104.4C45.7,105.5,45.4,106.5,44.9,107.4L50.1,104.4" stroke="#172635" stroke-linecap="round"/></g><g id="shape51" transform="translate(469.09,394.88)"><path d="M0,0L34.1,0L34.1,220.3L45.7,220.3" fill="none" stroke="#172635"/><path stroke-width="1" fill="#172635" d="M50.1,220.3L44.9,217.3C45.4,218.2,45.7,219.2,45.7,220.3C45.7,221.4,45.4,222.4,44.9,223.3L50.1,220.3" stroke="#172635" stroke-linecap="round"/></g><g id="shape52" transform="translate(586.26,170.74)"><path d="M0,0L23.7,0L23.7,224.1L51.3,224.1" fill="none" stroke="#172635"/><path stroke-width="1" fill="#172635" d="M55.7,224.1L50.5,221.1C51,222,51.3,223,51.3,224.1C51.3,225.2,51,226.3,50.5,227.1L55.7,224.1" stroke="#172635" stroke-linecap="round"/></g><g id="shape53" transform="translate(586.26,279.01)"><path d="M0,0L23.7,0L23.7,115.9L51.3,115.9" fill="none" stroke="#172635"/><path stroke-width="1" fill="#172635" d="M55.7,115.9L50.5,112.9C51,113.8,51.3,114.8,51.3,115.9C51.3,117,51,118,50.5,118.9L55.7,115.9" stroke="#172635" stroke-linecap="round"/></g><g id="shape54" transform="translate(586.26,394.88)"><path d="M0,0L51.3,0" fill="none" stroke="#172635"/><path stroke-width="1" fill="#172635" d="M55.7,0L50.5,-3C51,-2.1,51.3,-1.1,51.3,0C51.3,1.1,51,2.1,50.5,3L55.7,0" stroke="#172635" stroke-linecap="round"/></g><g id="shape55" transform="translate(586.26,499.28)"><path d="M0,0L23.7,0L23.7,-104.4L51.3,-104.4" fill="none" stroke="#172635"/><path stroke-width="1" fill="#172635" d="M55.7,-104.4L50.5,-107.4C51,-106.5,51.3,-105.5,51.3,-104.4C51.3,-103.3,51,-102.3,50.5,-101.4L55.7,-104.4" stroke="#172635" stroke-linecap="round"/></g><g id="shape56" transform="translate(586.26,615.15)"><path d="M0,0L23.7,0L23.7,-220.3L51.3,-220.3" fill="none" stroke="#172635"/><path stroke-width="1" fill="#172635" d="M55.7,-220.3L50.5,-223.3C51,-222.4,51.3,-221.4,51.3,-220.3C51.3,-219.2,51,-218.2,50.5,-217.3L55.7,-220.3" stroke="#172635" stroke-linecap="round"/></g><g id="shape57" transform="translate(744.59,394.88)"><path d="M0,0L23.2,0L23.2,-111.9L50.8,-111.9" fill="none" stroke="#172635"/><path stroke-width="1" fill="#172635" d="M55.2,-111.9L50,-114.9C50.5,-114,50.8,-113,50.8,-111.9C50.8,-110.8,50.5,-109.8,50,-108.9L55.2,-111.9" stroke="#172635" stroke-linecap="round"/></g><g id="shape58" transform="translate(744.59,394.88)"><path d="M0,0L23.2,0L23.2,101.1L50.8,101.1" fill="none" stroke="#172635"/><path stroke-width="1" fill="#172635" d="M55.2,101.1L50,98.1C50.5,99,50.8,100,50.8,101.1C50.8,102.2,50.5,103.2,50,104.1L55.2,101.1" stroke="#172635" stroke-linecap="round"/></g><g transform="translate(985.59,258)"><path id="shape59" fill="#23384b" d="M8.8,0L29.1,0C34,0,38,3.6,38,8.1L38,22.6C38,27,34,30.7,29.1,30.7L8.8,30.7C3.9,30.7,0,27,0,22.6L0,8.1C0,3.6,3.9,0,8.8,0z" stroke="#23384b" transform="translate(0,19.33)"/><path id="shape60" fill="#23384b" d="M-0,11.4C-0,5.1,5.2,0,11.6,0C18.1,0,23.3,5.1,23.3,11.4C23.3,17.6,18.1,22.7,11.6,22.7C5.2,22.7,-0,17.6,-0,11.4z" stroke="#23384b" transform="translate(7.33,-0.03)"/><text class="st6"><tspan y="67.2" x="1">管理员</tspan></text></g><g id="shape61" transform="translate(897.41,283)"><path d="M0,0L83.8,0" fill="none" stroke="#172635"/><path stroke-width="1" fill="#172635" d="M88.2,0L83,-3C83.5,-2.1,83.8,-1.1,83.8,0C83.8,1.1,83.5,2.1,83,3L88.2,0" stroke="#172635" stroke-linecap="round"/></g><g transform="translate(985.59,424.71)"><path id="shape62" fill="#23384b" d="M.9,.4C1.9,.8,0,0,.9,.4z" stroke="#23384b" transform="translate(25.94,22.82)"/><path id="shape63" fill="#23384b" d="M19.7,23.2C18.5,22.7,17.3,22.7,16.2,22.2C15.8,22.1,15.1,21.9,15,21.4C14.8,20.9,14.8,20.4,14.8,19.9C14.8,19.5,14.8,19.1,14.8,18.7C14.8,18.4,15.3,17.9,15.5,17.6C15.9,16.7,16,15.4,16,14.4C16.8,14.6,16.9,13,17,12.5C17.1,12.1,17.7,9.7,16.8,10C17,9.5,17.1,9,17.1,8.5C17.3,7.1,17.4,5.7,17,4.4C16.4,1.7,14.2,.2,12,.1C9.8,0,7.5,1.3,6.6,4C6.2,5.3,6.3,6.8,6.4,8.1C6.5,8.7,6.5,9.4,6.8,10C6,9.7,6.4,11.8,6.5,12.2C6.6,12.7,6.8,14.6,7.5,14.4C7.6,15.2,7.7,16.1,7.9,16.9C8,17.5,8.2,17.9,8.6,18.4C8.7,18.6,8.8,18.6,8.8,18.9C8.8,19.7,8.8,20.5,8.6,21.3C8.4,22.1,7,22.4,6.5,22.6C4.9,23,3.5,23.2,2.3,24.3C.8,25.7,0,27.7,0,30C7.1,30,14.1,30,21.2,30C22,30,22.8,30,23.6,30C23.6,26.9,22.1,24.2,19.7,23.2z" stroke="#23384b" transform="translate(7.21,0)"/><path id="shape64" fill="#23384b" d="M0,.1C.1,.1,.1,0,.1,-0C.1,0,.1,0,.1,0C0,.1,0,.1,0,.1z" stroke="#23384b" transform="translate(9.44,21.87)"/><path id="shape65" fill="#23384b" d="M9.4,16.9C9.1,17,8.8,17.3,9.5,16.8C9.8,16.7,9.7,16.7,9.6,16.8C10.1,16.5,10.8,16.4,11.4,16.3C11.6,16.3,11.7,16.1,11.6,15.8C11.2,15.3,10,15.2,9.6,14.9C9.2,14.8,9.2,14.6,9.1,14.2C9.1,14,9,13.2,9.2,13.1C9.2,13,9.8,13,9.9,13C10.4,12.9,10.9,12.8,11.3,12.6C11.5,12.5,11.7,12.4,11.9,12.2C12.1,12,11.7,11.6,11.6,11.3C11.4,10.5,11.2,9.7,11.2,8.8C11.1,7.2,11.3,5.5,11.1,3.8C10.7,1.3,9.1,0,7,0C5.8,0,4.5,.5,3.8,1.9C3,3.4,3.1,5.2,3.1,6.9C3.1,7.9,3.2,8.9,3.1,9.8C3,10.2,2.9,10.6,2.8,11C2.7,11.3,2.3,12.1,2.4,12.2C3.1,12.8,4.3,13.1,5.2,13C5.2,13.5,5.3,14.1,5.1,14.6C4.9,15.4,3.1,15.6,2.6,15.8C1.1,16.4,0,17.9,0,19.9C1.6,19.9,3.1,19.9,4.6,19.9C5.3,19.9,6,19.9,6.7,19.9C6.9,19.9,7.3,19,7.4,18.8C8,18,8.7,17.4,9.4,16.9z" stroke="#23384b" transform="translate(0,5.08)"/><path id="shape66" fill="#23384b" d="M9.9,16C9.2,15.7,7.9,15.6,7.4,14.9C7.2,14.6,7.3,13.6,7.3,13.2C7.7,13.2,8.1,13.2,8.5,13.1C8.8,13,9.2,13,9.5,12.8C9.7,12.7,9.8,12.7,10,12.6C10.3,12.3,10.1,12.3,10,11.9C9,10,9.5,7.6,9.4,5.5C9.4,3.8,9,1.9,7.7,.9C6.6,0,4.8,0,3.6,.6C0,2.4,2.1,8.2,.9,11.6C.7,12.1,.4,12.3,.9,12.7C1.2,12.8,1.5,13,1.8,13.1C2.3,13.2,2.8,13.3,3.4,13.3C3.4,13.3,3.4,14.6,3.4,14.8C3.3,15.3,2.4,15.4,2,15.5C1.7,15.6,1.1,15.7,.9,16.1C.7,16.8,1.8,16.6,2,16.7C2.9,16.9,3.7,17.5,4.4,18.1C4.9,18.7,5.6,19.3,5.7,20.2C8,20.2,10.3,20.2,12.5,20.2C12.5,18.1,11.4,16.6,9.9,16z" stroke="#23384b" transform="translate(25.46,4.85)"/></g><g transform="translate(985.59,511.71)"><path id="shape67" fill="#23384b" d="M.9,.4C1.9,.8,0,0,.9,.4z" stroke="#23384b" transform="translate(25.94,22.82)"/><path id="shape68" fill="#23384b" d="M19.7,23.2C18.5,22.7,17.3,22.7,16.2,22.2C15.8,22.1,15.1,21.9,15,21.4C14.8,20.9,14.8,20.4,14.8,19.9C14.8,19.5,14.8,19.1,14.8,18.7C14.8,18.4,15.3,17.9,15.5,17.6C15.9,16.7,16,15.4,16,14.4C16.8,14.6,16.9,13,17,12.5C17.1,12.1,17.7,9.7,16.8,10C17,9.5,17.1,9,17.1,8.5C17.3,7.1,17.4,5.7,17,4.4C16.4,1.7,14.2,.2,12,.1C9.8,0,7.5,1.3,6.6,4C6.2,5.3,6.3,6.8,6.4,8.1C6.5,8.7,6.5,9.4,6.8,10C6,9.7,6.4,11.8,6.5,12.2C6.6,12.7,6.8,14.6,7.5,14.4C7.6,15.2,7.7,16.1,7.9,16.9C8,17.5,8.2,17.9,8.6,18.4C8.7,18.6,8.8,18.6,8.8,18.9C8.8,19.7,8.8,20.5,8.6,21.3C8.4,22.1,7,22.4,6.5,22.6C4.9,23,3.5,23.2,2.3,24.3C.8,25.7,0,27.7,0,30C7.1,30,14.1,30,21.2,30C22,30,22.8,30,23.6,30C23.6,26.9,22.1,24.2,19.7,23.2z" stroke="#23384b" transform="translate(7.21,0)"/><path id="shape69" fill="#23384b" d="M0,.1C.1,.1,.1,0,.1,-0C.1,0,.1,0,.1,0C0,.1,0,.1,0,.1z" stroke="#23384b" transform="translate(9.44,21.87)"/><path id="shape70" fill="#23384b" d="M9.4,16.9C9.1,17,8.8,17.3,9.5,16.8C9.8,16.7,9.7,16.7,9.6,16.8C10.1,16.5,10.8,16.4,11.4,16.3C11.6,16.3,11.7,16.1,11.6,15.8C11.2,15.3,10,15.2,9.6,14.9C9.2,14.8,9.2,14.6,9.1,14.2C9.1,14,9,13.2,9.2,13.1C9.2,13,9.8,13,9.9,13C10.4,12.9,10.9,12.8,11.3,12.6C11.5,12.5,11.7,12.4,11.9,12.2C12.1,12,11.7,11.6,11.6,11.3C11.4,10.5,11.2,9.7,11.2,8.8C11.1,7.2,11.3,5.5,11.1,3.8C10.7,1.3,9.1,0,7,0C5.8,0,4.5,.5,3.8,1.9C3,3.4,3.1,5.2,3.1,6.9C3.1,7.9,3.2,8.9,3.1,9.8C3,10.2,2.9,10.6,2.8,11C2.7,11.3,2.3,12.1,2.4,12.2C3.1,12.8,4.3,13.1,5.2,13C5.2,13.5,5.3,14.1,5.1,14.6C4.9,15.4,3.1,15.6,2.6,15.8C1.1,16.4,0,17.9,0,19.9C1.6,19.9,3.1,19.9,4.6,19.9C5.3,19.9,6,19.9,6.7,19.9C6.9,19.9,7.3,19,7.4,18.8C8,18,8.7,17.4,9.4,16.9z" stroke="#23384b" transform="translate(0,5.08)"/><path id="shape71" fill="#23384b" d="M9.9,16C9.2,15.7,7.9,15.6,7.4,14.9C7.2,14.6,7.3,13.6,7.3,13.2C7.7,13.2,8.1,13.2,8.5,13.1C8.8,13,9.2,13,9.5,12.8C9.7,12.7,9.8,12.7,10,12.6C10.3,12.3,10.1,12.3,10,11.9C9,10,9.5,7.6,9.4,5.5C9.4,3.8,9,1.9,7.7,.9C6.6,0,4.8,0,3.6,.6C0,2.4,2.1,8.2,.9,11.6C.7,12.1,.4,12.3,.9,12.7C1.2,12.8,1.5,13,1.8,13.1C2.3,13.2,2.8,13.3,3.4,13.3C3.4,13.3,3.4,14.6,3.4,14.8C3.3,15.3,2.4,15.4,2,15.5C1.7,15.6,1.1,15.7,.9,16.1C.7,16.8,1.8,16.6,2,16.7C2.9,16.9,3.7,17.5,4.4,18.1C4.9,18.7,5.6,19.3,5.7,20.2C8,20.2,10.3,20.2,12.5,20.2C12.5,18.1,11.4,16.6,9.9,16z" stroke="#23384b" transform="translate(25.46,4.85)"/></g><g id="shape72" transform="translate(973.59,456.71)"><text class="st4"><tspan y="16.7" x="4">预约用户</tspan></text></g><g id="shape73" transform="translate(973.59,544.21)"><text class="st4"><tspan y="16.7" x="4">普通用户</tspan></text></g><g id="shape74" transform="translate(897.41,496)"><path d="M0,0L45.2,0L45.2,-47L83.8,-47" fill="none" stroke="#172635"/><path stroke-width="1" fill="#172635" d="M88.2,-47L83,-50C83.5,-49.1,83.8,-48.1,83.8,-47C83.8,-45.9,83.5,-44.9,83,-44L88.2,-47" stroke="#172635" stroke-linecap="round"/></g><g id="shape75" transform="translate(897.41,496)"><path d="M0,0L45.2,0L45.2,30.7L83.8,30.7" fill="none" stroke="#172635"/><path stroke-width="1" fill="#172635" d="M88.2,30.7L83,27.7C83.5,28.6,83.8,29.6,83.8,30.7C83.8,31.8,83.5,32.8,83,33.7L88.2,30.7" stroke="#172635" stroke-linecap="round"/></g><g transform="matrix(0.71,-0.71,0.71,0.71,306,459.9)"><path id="shape76" fill="#00188f" d="M2,7C2,8.9,1.2,10.7,0,12L2.2,14.2C4,12.4,5.1,9.9,5.1,7.1C5.1,4.3,4,1.8,2.2,0L0,2.2C1.2,3.3,2,5.1,2,7z" transform="translate(6.74,8.84)"/><path id="shape77" fill="#00188f" d="M3.8,11.4C3.8,15,2.4,18.3,0,20.8L2.2,23C5.1,20,6.9,16,6.9,11.5C6.9,7,5.1,2.9,2.2,0L.1,2.2C2.4,4.5,3.8,7.8,3.8,11.4z" transform="translate(11.03,4.41)"/><path id="shape78" fill="#00188f" d="M5.6,15.8C5.6,21.2,3.4,26.1,0,29.5L2.2,31.7C6.2,27.7,8.6,22,8.6,15.8C8.6,9.7,6.2,4,2.2,0L0,2.2C3.5,5.7,5.6,10.5,5.6,15.8z" transform="translate(15.45,0)"/><path id="shape79" fill="#00188f" d="M5.8,2.9C5.8,4.6,4.5,5.9,2.9,5.9C1.3,5.9,0,4.6,0,2.9C0,1.3,1.3,0,2.9,0C4.5,0,5.8,1.3,5.8,2.9z" transform="translate(0,12.96)"/></g><g transform="matrix(0.71,-0.71,0.71,0.71,306,209.9)"><path id="shape80" fill="#00188f" d="M2,7C2,8.9,1.2,10.7,0,12L2.2,14.2C4,12.4,5.1,9.9,5.1,7.1C5.1,4.3,4,1.8,2.2,0L0,2.2C1.2,3.3,2,5.1,2,7z" transform="translate(6.74,8.84)"/><path id="shape81" fill="#00188f" d="M3.8,11.4C3.8,15,2.4,18.3,0,20.8L2.2,23C5.1,20,6.9,16,6.9,11.5C6.9,7,5.1,2.9,2.2,0L.1,2.2C2.4,4.5,3.8,7.8,3.8,11.4z" transform="translate(11.03,4.41)"/><path id="shape82" fill="#00188f" d="M5.6,15.8C5.6,21.2,3.4,26.1,0,29.5L2.2,31.7C6.2,27.7,8.6,22,8.6,15.8C8.6,9.7,6.2,4,2.2,0L0,2.2C3.5,5.7,5.6,10.5,5.6,15.8z" transform="translate(15.45,0)"/><path id="shape83" fill="#00188f" d="M5.8,2.9C5.8,4.6,4.5,5.9,2.9,5.9C1.3,5.9,0,4.6,0,2.9C0,1.3,1.3,0,2.9,0C4.5,0,5.8,1.3,5.8,2.9z" transform="translate(0,12.96)"/></g><path id="shape84" fill="#0078d7" d="M18.8,12C19.2,12,19.6,11.8,19.9,11.5L23,8.5L14.6,8.3L17.6,11.5C17.9,11.8,18.3,12,18.8,12zM20.2,11.8C19.8,12.2,19.3,12.4,18.8,12.4C18.2,12.4,17.7,12.2,17.3,11.8L14.6,9.1L14.6,14.7L23,14.7L23,9.1L20.2,11.8zM11.9,12.1L13.3,12.1L13.3,10.9L11.9,10.9L11.9,12.1zM9.7,12.1L11.2,12.1L11.2,10.9L9.7,10.9L9.7,12.1zM.4,0C.2,0,0,.2,0,.4L0,5C0,5.2,.2,5.4,.4,5.4L2.7,5.4C2.9,5.4,3.1,5.2,3.1,5L3.1,3.1L19.9,3.1L19.9,5C19.9,5.2,20.1,5.4,20.4,5.4L22.6,5.4C22.8,5.4,23,5.2,23,5L23,.4C23,.2,22.8,0,22.6,0L.4,0zM4.2,12C4.7,12,5.1,11.8,5.4,11.5L8.4,8.5L0,8.3L3.1,11.5C3.4,11.8,3.8,12,4.2,12zM5.7,11.8C5.3,12.2,4.8,12.4,4.2,12.4C3.7,12.4,3.2,12.2,2.8,11.8L0,9.1L0,14.7L8.4,14.7L8.4,9.1L5.7,11.8zM22.6,23C22.8,23,23,22.8,23,22.6L23,18.1C23,17.9,22.8,17.7,22.6,17.7L20.4,17.7C20.2,17.7,20,17.9,20,18.1L20,19.9L3.1,19.9L3.1,18C3.1,17.8,2.9,17.6,2.6,17.6L.4,17.6C.2,17.6,0,17.8,0,18.1L0,22.6C0,22.8,.2,23,.4,23L22.6,23z" transform="translate(343.59,369.15)"/><g transform="translate(487.59,106)"><path id="shape85" stroke-width="0.666667" fill="#3e62ae" d="M0,5.9C0,2.7,5.8,0,13,0C20.2,0,26,2.7,26,5.9C26,9.2,20.2,11.9,13,11.9C5.8,11.9,0,9.2,0,5.9z" stroke="#3e62ae" transform="translate(0,-0)"/><path id="shape86" stroke-width="0.666667" fill="#3e62ae" d="M26,0L26,3.8C25.8,6.4,20.1,8.6,13,8.6C5.9,8.6,.2,6.4,0,3.8L0,0C.1,2.7,5.9,4.9,13,4.9C20.1,4.9,25.9,2.7,26,0z" stroke="#3e62ae" transform="translate(0,9.43)"/><path id="shape87" stroke-width="0.666667" fill="#3e62ae" d="M26,0L26,3.8C25.8,6.4,20.1,8.6,13,8.6C5.9,8.6,.2,6.4,0,3.8L0,0C.1,2.7,5.9,4.9,13,4.9C20.1,4.9,25.9,2.7,26,0z" stroke="#3e62ae" transform="translate(0,15.81)"/><path id="shape88" stroke-width="0.666667" fill="#3e62ae" d="M26,0L26,3.8C25.8,6.4,20.1,8.6,13,8.6C5.9,8.6,.2,6.4,0,3.8L0,0C.1,2.7,5.9,4.9,13,4.9C20.1,4.9,25.9,2.7,26,0z" stroke="#3e62ae" transform="translate(0,21.78)"/></g><g transform="translate(624.59,106)"><path id="shape89" stroke-width="0.25" fill="#3f3f3f" d="M14.5,0L0,8.4L0,25.1L14.5,33.5L29,25.1L29,8.4L14.5,0z" stroke="#3f3f3f"/><path id="shape90" stroke-width="0.25" fill="#ffffff" d="M.4,7.5L13.5,0L26.5,7.5L21.2,10.5L27,8.3L27,23.4L14,30.8L14,24.6L13.1,30.8L0,23.4L0,8.3L5.1,11.3L.4,7.5z" stroke="#3f3f3f" transform="translate(1.02,1.15)"/><g transform="translate(7.14,8.56)"><path id="shape91" fill="#ffd44f" d="M0,3.8L6.7,7.5L13.1,3.8L6.7,0L0,3.8z" stroke="#ffd44f" transform="translate(0.72,0)"/><path id="shape92" fill="#ffd44f" d="M0,0L7,3.6L7,11.2L0,7.5L0,0z" stroke="#ffd44f" transform="translate(0,4.87)"/><path id="shape93" fill="#ffd44f" d="M0,0L7,3.9L7,11.6L0,7.5L0,0z" stroke="#ffd44f" transform="matrix(-1,0,0,1,14.9,4.5)"/></g></g><g transform="translate(774.59,107.73)"><path id="shape94" fill="#23384b" d="M0,10.3C0,4.6,4.6,0,10.2,0C15.9,0,20.5,4.6,20.5,10.3C20.5,16,15.9,20.6,10.2,20.6C4.6,20.6,0,16,0,10.3zM15.8,18.2C18.3,16.5,19.9,13.6,19.9,10.3C19.9,10,19.9,9.7,19.8,9.4C19.9,9.8,19.9,10.1,19.9,10.1C19.5,10.4,18.9,9.9,18.3,9.6C18,9.5,17.7,9.3,17.4,9.2C17.6,9.3,17.9,9.5,18.1,9.6C18.9,10,19.4,10.5,19.4,10.5C19.4,10.5,19.2,11.3,18.5,11.5C17.9,11.8,18.3,12.5,18.3,13C18.3,13.5,18.5,14.5,18.2,15.1C17.9,15.8,17.7,16.3,16.9,16.6C16.2,17,16,16.3,15.9,15.9C15.8,15.6,15.7,13,14.9,12.7C14.1,12.3,12.7,12.3,12.4,11.1C12.1,9.9,12.5,9.3,12.7,8.9C12.9,8.6,13.2,8.7,13.2,8.7C13.2,8.7,13.9,9.3,15.2,9C15.8,8.9,16.3,8.9,16.7,9C16.7,9,17,7.8,16.7,7.2C16.4,6.5,15.4,6.7,15.2,7.1C15,7.4,15.8,8.3,15.4,8.3C15,8.3,14.8,7.3,14.1,7.4C13.4,7.6,13.8,8.3,13.2,8.5C12.5,8.8,12,7.2,11.5,6.6C11,6,11.5,4.6,12.5,5.2C13.4,5.8,13.1,5,13,4.7C12.8,4.5,12.7,4,13.2,4.2C13.7,4.4,14,4.2,14,4.2C14,4.1,13.7,3.1,13.9,2.7C14.1,2.3,14.7,3.1,15.3,3.2C15.8,3.2,15.6,2.3,15.6,2.3C15.6,2.3,15.7,2.3,15.8,2.4C14.2,1.3,12.3,.6,10.2,.6C8.1,.6,6.1,1.3,4.5,2.5C6.3,1.2,8.2,.9,8.2,.9C8.2,.9,8.2,1.2,7.6,1.4C7,1.6,6.6,1.9,7.6,2.3C8.5,2.6,8.7,3.4,7.8,3.8C6.9,4.3,7.1,5.1,7.1,5.7C7.1,6.3,7,7.1,6.4,6.9C5.8,6.6,5.8,5.9,4.8,5.9C3.8,5.9,3.2,7.9,3.2,8.3C3.2,8.4,3.7,8.8,3.7,8.9C4.4,9.3,4.8,9.7,4.9,10.4C5,11,4.1,11.6,4.1,12.5C4.1,13.4,3.7,14.6,5,15.9C6.3,17.2,6.3,18.3,4.8,17.4C3.3,16.4,2.1,14.7,2.1,14C2.1,13.3,2.1,13.4,1.7,12.9C1.3,12.5,1,12.3,.9,11.5C.8,10.6,.7,8.7,1,8.3C1.3,7.9,1.9,7.9,2.3,8C2.4,8.1,2.5,8.1,2.6,8.1C2.5,7.8,2.4,7.4,2.3,7.1C2.2,6.6,1.7,5.9,1.7,5.9C1.7,5.8,1.8,5.7,1.8,5.5C1.1,6.9,.6,8.6,.6,10.3C.6,13.8,2.4,16.9,5.2,18.6C5,18.4,4.9,18.3,4.9,18.3C4.9,18.3,6.2,18.8,6.7,18.3C7.1,17.9,7.6,17.2,8.5,17.6C9.4,18,9.8,17.9,10.2,17.5C10.6,17.1,11.2,16.7,11.9,17.2C12.7,17.8,12.9,17,13.7,16.9C14.5,16.8,16,18,16,18C16,18,15.9,18.1,15.8,18.2zM4,2.9C3.9,3,3.7,3.2,3.5,3.3C3.6,3.2,3.8,3.1,3.9,3C3.9,3,4,2.9,4,2.9zM10.2,.6C9.7,.6,8.9,.7,8.8,.7C8.9,.8,8.9,.8,9,1C9.2,1.2,9.1,1.4,8.8,1.7C8.5,2.1,9,2.7,9.2,2.7C9.3,2.8,9.7,3,9.7,3.3C9.7,3.7,10.4,3.5,10.6,3.3C10.8,3.2,11.4,.7,11.4,.7C11.4,.7,10.9,.6,10.2,.6zM11.5,3.7C11.4,3.9,11.5,3.9,11.1,4C10.7,4,11,4.3,11,4.7C10.9,5.1,11.2,4.7,11.5,4.5C11.8,4.3,11.8,4.1,11.9,4C12,3.9,12.1,3.4,11.8,3.3C11.5,3.2,11.5,3.6,11.5,3.7zM8.8,.7C8.8,.7,8.8,.7,8.8,.7C8.8,.7,8.8,.7,8.8,.7z" stroke="#23384b"/><path id="shape95" fill="#23384b" d="M9.2,0C9.2,0,9.4,1.8,10.4,2.9C11.5,4,13.7,4.8,13.7,4.8L0,5.7C0,4.8,2.3,3.9,3.5,2.8C4.6,1.8,4.6,0,4.6,0L9.2,0z" stroke="#23384b" transform="translate(10.01,24.32)"/><path id="shape96" fill="#23384b" d="M17,0L24.5,0C25.5,0,26.3,.8,26.3,1.7L26.3,17.1C26.3,18,25.5,18.8,24.5,18.8L1.8,18.8C.8,18.8,0,18,0,17.1L0,14.4C.3,14.5,.7,14.6,1.1,14.7L1.1,16.9L25.2,16.9L25.2,1.2L17.3,1.2C17.2,.8,17.1,.4,17,0z" stroke="#23384b" transform="translate(3.7,5.53)"/></g><g transform="translate(829.59,110.19)"><g><g transform="translate(0,8.54)"><path id="shape97" fill="#23384b" d="M17.3,1.2L17.3,5.8L17.3,12.6L15.4,12.6L14.1,12.6L14.1,13.8L14.1,17.7C14.1,18,13.8,18.3,13.4,18.3C13.4,18.3,13.4,18.3,13.4,18.3C13.3,18.3,13.2,18.2,13.1,18.2C12.8,18,12.7,17.9,12.7,17.7L12.7,13.8L12.7,12.6L11.4,12.6L7.4,12.6L6,12.6L6,13.8L6,17.7C6,18,5.7,18.3,5.3,18.3C5,18.3,4.7,18,4.7,17.7L4.7,13.8L4.7,12.6L3.4,12.6L1.3,12.6L1.3,5.8L1.3,1.2L17.3,1.2zM18.6,0L0,0L0,5.8L0,12.7C0,13.2,.5,13.8,1,13.8L3.3,13.8L3.3,17.7C3.3,18.7,4.2,19.5,5.3,19.5C6.4,19.5,7.3,18.7,7.3,17.7L7.3,13.8L11.4,13.8L11.4,17.7C11.4,18.3,11.7,18.8,12.2,19.1C12.5,19.4,12.9,19.5,13.4,19.5C13.4,19.5,13.4,19.5,13.4,19.5C13.5,19.5,13.4,19.5,13.4,19.5C14.5,19.5,15.4,18.7,15.4,17.7L15.4,13.8L17.8,13.8C18.4,13.8,18.6,13.2,18.6,12.7L18.6,5.8L18.6,0z" stroke="#23384b" transform="translate(5.32,1.22)"/><path id="shape98" fill="#23384b" d="M2,1.2C2.4,1.2,2.7,1.5,2.7,1.8L2.7,9.1C2.7,9.5,2.4,9.8,2,9.8C1.6,9.8,1.3,9.5,1.3,9.1L1.3,1.8C1.3,1.5,1.6,1.2,2,1.2zM2,0C.9,0,0,.8,0,1.8L0,9.1C0,10.2,.9,11,2,11C3.1,11,4,10.2,4,9.1L4,1.8C4,.8,3.1,0,2,0z" stroke="#23384b" transform="translate(25.28,0)"/><path id="shape99" fill="#23384b" d="M2,1.2C2.4,1.2,2.7,1.5,2.7,1.8L2.7,9.1C2.7,9.5,2.4,9.8,2,9.8C1.6,9.8,1.3,9.5,1.3,9.1L1.3,1.8C1.3,1.5,1.6,1.2,2,1.2zM2,0C.9,0,0,.8,0,1.8L0,9.1C0,10.2,.9,11,2,11C3.1,11,4,10.2,4,9.1L4,1.8C4,.8,3.1,0,2,0z" stroke="#23384b"/></g><path id="shape100" fill="#23384b" d="M9.2,2.3C10.5,2.3,11.6,2.5,12.5,2.7C15.7,4,16.7,5.9,17,7.3L1.5,7.3C1.9,5.9,2.8,4,5.2,3C7,2.4,8.1,2.3,9.2,2.3zM3.4,0C3.4,0,3.3,0,3.3,.1C3.2,.1,3.1,.2,3.2,.3L4.7,1.9C.7,3.5,.1,7.4,0,8.5L18.6,8.5C18.5,7.4,17.9,3.6,13.9,2L15.4,.3C15.5,.2,15.4,.1,15.3,.1C15.3,0,15.2,0,15.2,0C15.1,0,15.1,0,15.1,0L13.5,1.8C12.4,1.3,11,1.1,9.3,1.1C9.3,1.1,9.2,1.1,9.2,1.1C7.5,1.1,6.2,1.3,5.1,1.7L3.5,0C3.5,0,3.5,0,3.4,0z" stroke="#23384b" transform="translate(5.34,0)"/></g><path id="shape101" fill="#23384b" d="M1.1,2C.5,2,0,1.6,0,1C0,.5,.5,0,1.1,0C1.7,0,2.2,.5,2.2,1C2.2,1.6,1.7,2,1.1,2z" stroke="#23384b" transform="translate(9.4,3.68)"/><path id="shape102" fill="#23384b" d="M1.1,2C.5,2,0,1.6,0,1C0,.5,.5,0,1.1,0C1.7,0,2.2,.5,2.2,1C2.2,1.6,1.7,2,1.1,2z" stroke="#23384b" transform="translate(17.59,3.68)"/></g><g id="shape103" transform="translate(810.77,115.73)"><text class="st7"><tspan y="13.8" x="4">x</tspan></text></g><path id="shape104" fill="#50bec1" d="M32.4,7.7C32.3,3.4,28.8,-0.1,24.4,0C24,0,23.6,0,23.2,.1C19.8,.6,17.5,3,16.2,4.9C14.9,3,12.6,.6,9.2,.1C8.8,0,8.4,0,8,0C3.7,-0.1,.1,3.4,0,7.7C.1,12.1,3.7,15.5,8,15.4C8.4,15.4,8.8,15.4,9.2,15.4C12.7,14.9,15,12.4,16.2,10.5C17.5,12.4,19.8,14.9,23.2,15.4C23.7,15.4,24,15.4,24.5,15.4C28.8,15.5,32.3,12,32.4,7.7zM8.8,12.6C8.5,12.7,8.2,12.7,8,12.7C5.1,12.7,2.8,10.5,2.7,7.7C2.8,4.9,5.2,2.6,8,2.7C8.2,2.7,8.5,2.7,8.8,2.8C12.1,3.2,14,6.4,14.7,7.7C14,9,12,12.2,8.8,12.6zM17.7,7.7C18.4,6.5,20.3,3.3,23.6,2.8C23.8,2.7,24.1,2.7,24.4,2.7C25.8,2.7,27.1,3.2,28.1,4.1C29.1,5.1,29.6,6.4,29.7,7.7C29.6,10.5,27.2,12.8,24.4,12.7C24.1,12.7,23.8,12.7,23.6,12.6C20.4,12.2,18.4,9,17.7,7.7zM5.7,8.5L10.5,8.5L10.5,6.9L5.7,6.9L5.7,8.5zM25,8.5L26.6,8.5L26.6,6.9L24.9,6.9L24.9,5.3L23.4,5.3L23.4,7L21.8,7L21.8,8.5L23.4,8.5L23.4,10.1L25,10.1L25,8.5zM32.7,1C32.7,1.4,32.4,1.7,31.9,1.7C31.8,1.7,31.6,1.6,31.4,1.5C31.3,1.4,31.2,1.2,31.2,1C31.2,.6,31.5,.3,31.9,.3C32.4,.3,32.7,.6,32.7,1zM31.4,1C31.4,1.3,31.6,1.5,32,1.5C32.3,1.5,32.5,1.3,32.5,1C32.5,.7,32.3,.5,32,.5C31.6,.4,31.4,.7,31.4,1zM31.8,1.3C32.1,.6,32.2,.6,32.2,.7C32.3,.7,32.3,.7,32.3,.8C32.3,.9,32.2,1,32.1,1C32.2,1,32.2,1,32.3,1.1C32.1,1.3,32.1,1.2,32.1,1.1C32.1,1.1,32,1,31.8,1.3zM31.9,.9C32,.9,32.1,.9,32.1,.8C32.1,.8,32,.7,31.9,.9z" transform="translate(53.93,106)"/><g id="shape105" transform="matrix(-0.73,-0.68,0.68,-0.73,848.6,516.3)"><path d="M0,0C41.6,-104.1,181.5,-105.8,210.3,-5.2" fill="none" stroke="#172635"/><path stroke-width="1" fill="#172635" d="M211.7,0L213.3,-5.8C212.6,-5.1,211.7,-4.5,210.6,-4.2C209.5,-4,208.5,-4,207.5,-4.3L211.7,0" stroke="#172635" stroke-linecap="round"/></g></g></svg>